<svg width="40" height="40" viewBox="0 0 40 40" fill="none" xmlns="http://www.w3.org/2000/svg">
<rect width="40" height="40" rx="6" fill="#B2335E"/>
<path d="M27.3329 11H12.6671C10.65 11 9 12.2964 9 13.8813V25.4044C9 26.9904 10.65 28.2857 12.6671 28.2857H27.3329C29.35 28.2857 31 26.9904 31 25.4044V13.8813C31 12.2964 29.35 11 27.3329 11ZM27.3329 13.1607C27.5047 13.1607 27.667 13.1996 27.8059 13.2677L19.9986 18.3389L12.1927 13.2677C12.3316 13.1996 12.4939 13.1607 12.6657 13.1607H27.3315H27.3329ZM12.6671 26.125C12.6259 26.125 12.5846 26.1228 12.5448 26.1185L17.3916 20.8356L16.7632 20.3418L11.75 24.2808V13.9645L20 21.8036L28.25 13.9645V24.2808L23.2367 20.3418L22.6084 20.8356L27.4552 26.1185C27.4154 26.1228 27.3741 26.125 27.3342 26.125H12.6685H12.6671Z" fill="#FEFEFE"/>
</svg>
