<svg width="40" height="40" viewBox="0 0 40 40" fill="none" xmlns="http://www.w3.org/2000/svg">
<rect width="40" height="40" rx="6" fill="#B2335E"/>
<path d="M16.2139 15.574H20.7593V17.9034H20.8251C21.4575 16.7683 23.005 15.574 25.313 15.574C30.1115 15.574 30.9986 18.5605 30.9986 22.4456V30.3587H26.2593V23.3442C26.2593 21.6719 26.2248 19.5182 23.7951 19.5182C21.3277 19.5182 20.9499 21.34 20.9499 23.2226V30.3587H16.2139V15.574Z" fill="white"/>
<path d="M8 15.574H12.9282V30.3587H8V15.574Z" fill="white"/>
<path d="M12.9282 11.4641C12.9282 12.8243 11.8243 13.9282 10.4641 13.9282C9.10393 13.9282 8 12.8243 8 11.4641C8 10.1039 9.10393 9 10.4641 9C11.8243 9 12.9282 10.1039 12.9282 11.4641Z" fill="white"/>
</svg>
