<svg width="112" height="113" viewBox="0 0 112 113" fill="none" xmlns="http://www.w3.org/2000/svg">
<g id="Group 46">
<circle id="Ellipse 16" cx="56" cy="56.2871" r="56" fill="#B2335E"/>
<path id="Vector" d="M86.9589 85.1073C87.2486 84.8376 87.2582 84.382 86.9804 84.1003L29.6161 25.943C29.3416 25.6648 28.8927 25.6642 28.6176 25.9418L25.7557 28.8285C25.4844 29.1022 25.4844 29.5435 25.7557 29.8172L45.22 49.4509C45.4913 49.7246 45.4913 50.1659 45.22 50.4396L34.6446 61.1071C34.3732 61.3808 34.3732 61.822 34.6446 62.0958L39.8867 67.3834C40.158 67.6572 40.158 68.0984 39.8867 68.3721L31.3951 76.9376C31.2647 77.0691 31.1916 77.2468 31.1916 77.432V83.8058C31.1916 84.4328 31.9509 84.7455 32.3924 84.3002L44.0262 72.565C44.3009 72.2879 44.7488 72.2879 45.0235 72.565L50.2485 77.8354C50.5232 78.1125 50.9711 78.1125 51.2458 77.8354L61.804 67.1853C62.0787 66.9082 62.5266 66.9082 62.8013 67.1853L83.1569 87.718C83.4239 87.9874 83.8565 87.996 84.134 87.7376L86.9589 85.1073ZM54.7015 65.2913C54.9728 65.565 54.9728 66.0063 54.7015 66.28L51.5421 69.4669C51.2674 69.744 50.8194 69.744 50.5448 69.4669L43.2372 62.0958C42.9658 61.822 42.9658 61.3808 43.2372 61.1071L49.6559 54.6325C49.9306 54.3554 50.3785 54.3554 50.6532 54.6325L53.8126 57.8194C54.0839 58.0931 54.0839 58.5344 53.8126 58.8081L51.5335 61.1071C51.2621 61.3808 51.2621 61.822 51.5335 62.0958L54.7015 65.2913ZM57.7641 45.8799C57.4875 46.1456 57.049 46.1402 56.779 45.8679L53.6147 42.6761C53.3406 42.3995 53.3438 41.9527 53.6219 41.6802L62.9892 32.5013C63.2651 32.231 63.7074 32.2342 63.9793 32.5085L69.2114 37.7861C69.4861 38.0632 69.934 38.0632 70.2087 37.7861L73.3681 34.5992C73.6395 34.3255 73.6395 33.8842 73.3681 33.6105L70.2001 30.415C69.9288 30.1413 69.9288 29.7 70.2001 29.4263L73.3654 26.2335C73.6378 25.9587 74.0812 25.9561 74.3568 26.2276L86.0972 37.7948C86.3741 38.0676 86.3767 38.5133 86.1031 38.7893L82.9326 41.9874C82.6645 42.2578 82.2298 42.2653 81.9526 42.0043L78.5046 38.7582C78.2274 38.4972 77.7927 38.5047 77.5246 38.7751L74.3483 41.979C74.077 42.2528 74.077 42.694 74.3483 42.9677L79.5974 48.2625C79.866 48.5334 79.8691 48.9692 79.6045 49.244L70.5048 58.6928C70.2314 58.9767 69.7779 58.98 69.5004 58.7001L62.1639 51.2997C61.9072 51.0408 61.8914 50.6285 62.1275 50.3507L62.9926 49.3326C63.259 49.0191 63.7367 49.0007 64.0263 49.2929L67.1373 52.431C67.412 52.7081 67.8599 52.7081 68.1346 52.431L71.2941 49.2441C71.5654 48.9704 71.5654 48.5291 71.2941 48.2554L63.9745 40.8721C63.7045 40.5998 63.2659 40.5944 62.9894 40.8601L57.7641 45.8799Z" fill="white"/>
</g>
</svg>
