<svg width="50" height="50" viewBox="0 0 50 50" fill="none" xmlns="http://www.w3.org/2000/svg">
<g id="Group 173">
<rect id="Rectangle 325" width="50" height="50" rx="6" fill="#B2335E"/>
<path id="Vector" d="M34.3328 14H15.6673C13.1 14 11 15.65 11 17.6671V32.3329C11 34.3514 13.1 36 15.6673 36H34.3328C36.9 36 39 34.3514 39 32.3329V17.6671C39 15.65 36.9 14 34.3328 14ZM34.3328 16.75C34.5515 16.75 34.758 16.7995 34.9347 16.8861L24.9983 23.3404L15.0635 16.8861C15.2403 16.7995 15.4467 16.75 15.6655 16.75H34.331H34.3328ZM15.6673 33.25C15.6148 33.25 15.5623 33.2472 15.5115 33.2418L21.6803 26.518L20.8805 25.8896L14.5 30.9029V17.773L25 27.75L35.5 17.773V30.9029L29.1195 25.8896L28.3197 26.518L34.4885 33.2418C34.4377 33.2472 34.3853 33.25 34.3345 33.25H15.669H15.6673Z" fill="#FEFEFE"/>
</g>
</svg>
