<svg width="50" height="50" viewBox="0 0 50 50" fill="none" xmlns="http://www.w3.org/2000/svg">
<g id="in icon">
<rect id="Rectangle 328" width="50" height="50" rx="6" fill="#B2335E"/>
<g id="in">
<path id="Vector" d="M21 20H26.534V22.836H26.614C27.384 21.454 29.268 20 32.078 20C37.92 20 39 23.636 39 28.366V38H33.23V29.46C33.23 27.424 33.188 24.802 30.23 24.802C27.226 24.802 26.766 27.02 26.766 29.312V38H21V20Z" fill="white"/>
<path id="Vector_2" d="M11 20H17V38H11V20Z" fill="white"/>
<path id="Vector_3" d="M17 15C17 16.656 15.656 18 14 18C12.344 18 11 16.656 11 15C11 13.344 12.344 12 14 12C15.656 12 17 13.344 17 15Z" fill="white"/>
</g>
</g>
</svg>
