<svg width="41" height="66" viewBox="0 0 41 66" fill="none" xmlns="http://www.w3.org/2000/svg">
<g id="Group 3">
<g id="Group">
<path id="Union" fillRule="evenodd" clipRule="evenodd" d="M14.2588 14.7231C11.0546 17.7 5.93672 17.7 2.7252 14.7231C-0.830932 11.4236 -0.904249 5.87312 2.49057 2.48563C5.80474 -0.828542 11.1793 -0.828542 14.4934 2.48563C17.8883 5.87312 17.8149 11.4236 14.2588 14.7231ZM38.7406 26.7474C41.7175 29.9516 41.7175 35.0695 38.7406 38.281C35.4411 41.8371 29.8906 41.9104 26.5031 38.5156C23.1889 35.2014 23.1889 29.8269 26.5031 26.5128C29.8906 23.1179 35.4411 23.1913 38.7406 26.7474Z" fill="#123C69"/>
</g>
<g id="Group_2">
<g id="Group_3">
<path id="Vector" d="M38.7427 62.2998C35.4432 65.8559 29.8926 65.9293 26.5052 62.5344C23.191 59.2203 23.191 53.8458 26.5052 50.5316C29.8926 47.1368 35.4432 47.2101 38.7427 50.7662C41.7195 53.9777 41.7195 59.0956 38.7427 62.2998Z" fill="#123C69"/>
<path id="Vector_2" d="M38.7427 62.2998C35.4432 65.8559 29.8926 65.9293 26.5052 62.5344C23.191 59.2203 23.191 53.8458 26.5052 50.5316C29.8926 47.1368 35.4432 47.2101 38.7427 50.7662C41.7195 53.9777 41.7195 59.0956 38.7427 62.2998Z" fill="#123C69"/>
</g>
<path id="Union_2" fillRule="evenodd" clipRule="evenodd" d="M26.5042 38.515C26.8412 38.8527 27.1995 39.156 27.575 39.4251C29.4323 40.7566 31.7054 41.247 33.8702 40.8961C35.6691 40.6051 37.3934 39.7335 38.7417 38.2803C38.9022 38.1071 39.0541 37.9284 39.1974 37.7447C41.5656 34.7262 41.6004 30.4724 39.3017 27.4177C39.1284 27.1862 38.9418 26.9621 38.7417 26.7467C38.6482 26.646 38.5529 26.548 38.4558 26.4528C35.193 23.1269 35.2125 17.7963 38.5144 14.5017C41.8285 11.1802 41.8285 5.80565 38.5144 2.49149C35.1929 -0.822683 29.8184 -0.822683 26.5042 2.49149C23.19 5.80565 17.8155 5.80565 14.494 2.49149C11.1798 -0.822683 5.80529 -0.822683 2.49113 2.49149C-0.830375 5.80565 -0.830375 11.1802 2.49113 14.5017C5.80529 17.8159 11.1798 17.8159 14.494 14.5017C17.8155 11.1802 23.19 11.1802 26.5042 14.5017C29.8184 17.8159 29.8184 23.1904 26.5042 26.5119L26.4787 26.5375C23.1625 29.8262 17.807 29.8178 14.494 26.5121C11.1798 23.1906 5.8053 23.1906 2.49113 26.5121C-0.830375 29.8263 -0.830375 35.2008 2.49113 38.515C5.8053 41.8365 5.8053 47.211 2.49113 50.5252C-0.903698 53.9127 -0.830381 59.4632 2.72575 62.7627C5.93727 65.7395 11.0552 65.7395 14.2594 62.7627C17.8155 59.4632 17.8888 53.9127 14.494 50.5252C11.1798 47.211 11.1798 41.8365 14.494 38.515C17.8155 35.2008 23.19 35.2008 26.5042 38.515ZM26.5043 62.5342C29.8918 65.929 35.4423 65.8557 38.7418 62.2996C41.7187 59.0954 41.7187 53.9775 38.7418 50.766C35.4423 47.2099 29.8918 47.1365 26.5043 50.5314C23.1901 53.8455 23.1901 59.2201 26.5043 62.5342Z" fill="#123C69"/>
</g>
</g>
</svg>
