<svg width="933" height="190" viewBox="0 0 933 190" fill="none" xmlns="http://www.w3.org/2000/svg">
<path d="M19.8329 134.079C28.4271 145.747 40.7675 152.132 54.6506 152.132C82.4166 152.132 102.029 130.997 102.029 96.2109C102.029 61.4253 82.4166 40.5098 54.6506 40.5098C40.3268 40.5098 27.5456 47.7752 19.8329 58.343V43.1518H0V190H19.8329V134.079ZM81.3147 96.2109C81.3147 118.447 69.1946 134.519 49.3618 134.519C37.2417 134.519 25.1216 127.254 19.8329 118.888V73.7543C25.1216 65.168 37.2417 58.1228 49.3618 58.1228C69.1946 58.1228 81.3147 74.1947 81.3147 96.2109Z" fill="white"/>
<path d="M120.572 96.2109C120.572 129.676 143.931 152.132 175.664 152.132C192.852 152.132 207.837 146.628 218.415 136.28L209.159 123.291C201.226 131.437 188.886 135.84 177.647 135.84C156.272 135.84 143.05 120.869 141.507 102.816H225.687V97.9722C225.687 65.3882 205.854 40.5098 173.901 40.5098C142.829 40.5098 120.572 65.3882 120.572 96.2109ZM173.901 56.8018C196.378 56.8018 205.854 74.4148 206.294 88.5052H141.287C142.389 73.9745 152.525 56.8018 173.901 56.8018Z" fill="white"/>
<path d="M243.882 96.2109C243.882 128.134 265.919 152.132 298.092 152.132C318.145 152.132 330.265 143.766 337.978 133.418L324.756 121.309C318.366 130.116 309.771 134.519 298.973 134.519C278.039 134.519 264.597 118.227 264.597 96.2109C264.597 74.1947 278.039 58.1228 298.973 58.1228C309.771 58.1228 318.366 62.3059 324.756 71.3326L337.978 59.2236C330.265 48.876 318.145 40.5098 298.092 40.5098C265.919 40.5098 243.882 64.2874 243.882 96.2109Z" fill="white"/>
<path d="M456.335 149.49L410.058 91.3673L455.894 43.1518H430.993L379.648 97.0916V2.64194H359.815V149.49H379.648V119.988L395.734 103.696L431.213 149.49H456.335Z" fill="white"/>
<path d="M483.998 25.3187C491.049 25.3187 496.779 19.8146 496.779 12.7694C496.779 5.72421 491.049 0 483.998 0C477.166 0 471.216 5.72421 471.216 12.7694C471.216 19.8146 477.166 25.3187 483.998 25.3187ZM494.134 149.49V43.1518H474.301V149.49H494.134Z" fill="white"/>
<path d="M535.43 124.171C542.482 124.171 548.212 129.676 548.212 136.721C548.212 143.766 542.482 149.49 535.43 149.49C528.599 149.49 522.649 143.766 522.649 136.721C522.649 129.676 528.599 124.171 535.43 124.171ZM545.567 0V106.338H525.734V0H545.567Z" fill="white"/>
<path d="M597 149.49V2.64194H577.167V149.49H597Z" fill="white"/>
<path d="M621.989 96.2109C621.989 129.676 645.348 152.132 677.08 152.132C694.269 152.132 709.254 146.628 719.831 136.28L710.576 123.291C702.643 131.437 690.302 135.84 679.064 135.84C657.688 135.84 644.466 120.869 642.924 102.816H727.103V97.9722C727.103 65.3882 707.27 40.5098 675.318 40.5098C644.246 40.5098 621.989 65.3882 621.989 96.2109ZM675.318 56.8018C697.795 56.8018 707.27 74.4148 707.711 88.5052H642.703C643.805 73.9745 653.942 56.8018 675.318 56.8018Z" fill="white"/>
<path d="M742.655 135.62C753.452 146.628 769.098 152.132 786.948 152.132C814.934 152.132 829.919 137.822 829.919 119.548C829.919 95.1101 807.883 90.0463 789.372 85.8633C776.15 82.781 764.691 79.6987 764.691 70.4519C764.691 61.8656 773.065 56.5817 786.507 56.5817C799.949 56.5817 811.849 62.0858 818.019 69.5713L826.834 55.701C817.799 47.1147 804.577 40.5098 786.287 40.5098C760.284 40.5098 745.74 55.0406 745.74 71.993C745.74 94.8899 766.895 99.7335 784.965 103.917C798.627 106.999 810.747 110.521 810.747 121.089C810.747 130.116 802.814 136.28 787.829 136.28C773.506 136.28 759.402 129.015 752.13 121.089L742.655 135.62Z" fill="white"/>
<path d="M845.735 135.62C856.533 146.628 872.179 152.132 890.029 152.132C918.015 152.132 933 137.822 933 119.548C933 95.1101 910.964 90.0463 892.453 85.8633C879.231 82.781 867.772 79.6987 867.772 70.4519C867.772 61.8656 876.146 56.5817 889.588 56.5817C903.03 56.5817 914.93 62.0858 921.1 69.5713L929.915 55.701C920.88 47.1147 907.658 40.5098 889.368 40.5098C863.365 40.5098 848.821 55.0406 848.821 71.993C848.821 94.8899 869.976 99.7335 888.046 103.917C901.708 106.999 913.828 110.521 913.828 121.089C913.828 130.116 905.895 136.28 890.91 136.28C876.587 136.28 862.483 129.015 855.211 121.089L845.735 135.62Z" fill="white"/>
</svg>
