<svg width="240" height="49" viewBox="0 0 240 49" fill="none" xmlns="http://www.w3.org/2000/svg">
<g id="peckiiless">
<path d="M5.1017 34.5782C7.31244 37.5875 10.4868 39.2341 14.058 39.2341C21.2004 39.2341 26.2454 33.7833 26.2454 24.8123C26.2454 15.8413 21.2004 10.4473 14.058 10.4473C10.3735 10.4473 7.0857 12.321 5.1017 15.0463V11.1286H0V49H5.1017V34.5782ZM20.917 24.8123C20.917 30.5469 17.7993 34.6918 12.6976 34.6918C9.57986 34.6918 6.46215 32.8181 5.1017 30.6605V19.0209C6.46215 16.8065 9.57986 14.9896 12.6976 14.9896C17.7993 14.9896 20.917 19.1344 20.917 24.8123Z" fill="black"/>
<path d="M31.0154 24.8123C31.0154 33.4426 37.0241 39.2341 45.1868 39.2341C49.6083 39.2341 53.4629 37.8146 56.1838 35.146L53.803 31.7961C51.7623 33.8969 48.5879 35.0324 45.697 35.0324C40.1985 35.0324 36.7973 31.1715 36.4005 26.5156H58.0544V25.2665C58.0544 16.8633 52.9527 10.4473 44.7333 10.4473C36.7407 10.4473 31.0154 16.8633 31.0154 24.8123ZM44.7333 14.6489C50.5152 14.6489 52.9527 19.1912 53.0661 22.825H36.3439C36.6273 19.0776 39.2348 14.6489 44.7333 14.6489Z" fill="black"/>
<path d="M62.735 24.8123C62.735 33.0452 68.4035 39.2341 76.6796 39.2341C81.838 39.2341 84.9557 37.0765 86.9397 34.4079L83.5386 31.2851C81.8947 33.5562 79.684 34.6918 76.9064 34.6918C71.5212 34.6918 68.0634 30.4902 68.0634 24.8123C68.0634 19.1344 71.5212 14.9896 76.9064 14.9896C79.684 14.9896 81.8947 16.0684 83.5386 18.3963L86.9397 15.2735C84.9557 12.6049 81.838 10.4473 76.6796 10.4473C68.4035 10.4473 62.735 16.5794 62.735 24.8123Z" fill="black"/>
<path d="M117.385 38.5527L105.481 23.5632L117.272 11.1286H110.866L97.6586 25.0394V0.681342H92.5569V38.5527H97.6586V30.9444L101.797 26.7428L110.923 38.5527H117.385Z" fill="black"/>
<path d="M124.501 6.52955C126.315 6.52955 127.789 5.11008 127.789 3.29316C127.789 1.47624 126.315 0 124.501 0C122.744 0 121.213 1.47624 121.213 3.29316C121.213 5.11008 122.744 6.52955 124.501 6.52955ZM127.109 38.5527V11.1286H122.007V38.5527H127.109Z" fill="black"/>
<path d="M137.731 32.0232C139.545 32.0232 141.019 33.4426 141.019 35.2596C141.019 37.0765 139.545 38.5527 137.731 38.5527C135.974 38.5527 134.444 37.0765 134.444 35.2596C134.444 33.4426 135.974 32.0232 137.731 32.0232ZM140.339 0V27.4241H135.237V0H140.339Z" fill="black"/>
<path d="M153.569 38.5527V0.681342H148.467V38.5527H153.569Z" fill="black"/>
<path d="M159.997 24.8123C159.997 33.4426 166.006 39.2341 174.169 39.2341C178.59 39.2341 182.445 37.8146 185.166 35.146L182.785 31.7961C180.744 33.8969 177.57 35.0324 174.679 35.0324C169.18 35.0324 165.779 31.1715 165.382 26.5156H187.036V25.2665C187.036 16.8633 181.935 10.4473 173.715 10.4473C165.722 10.4473 159.997 16.8633 159.997 24.8123ZM173.715 14.6489C179.497 14.6489 181.935 19.1912 182.048 22.825H165.326C165.609 19.0776 168.217 14.6489 173.715 14.6489Z" fill="black"/>
<path d="M191.037 34.9757C193.814 37.8146 197.839 39.2341 202.43 39.2341C209.629 39.2341 213.484 35.5435 213.484 30.8308C213.484 24.5284 207.815 23.2225 203.054 22.1437C199.653 21.3488 196.705 20.5539 196.705 18.1692C196.705 15.9548 198.859 14.5921 202.317 14.5921C205.775 14.5921 208.836 16.0116 210.423 17.9421L212.69 14.365C210.366 12.1506 206.965 10.4473 202.26 10.4473C195.571 10.4473 191.83 14.1947 191.83 18.5666C191.83 24.4716 197.272 25.7207 201.92 26.7995C205.435 27.5944 208.552 28.5029 208.552 31.2283C208.552 33.5562 206.512 35.146 202.657 35.146C198.973 35.146 195.345 33.2723 193.474 31.2283L191.037 34.9757Z" fill="black"/>
<path d="M217.553 34.9757C220.33 37.8146 224.355 39.2341 228.946 39.2341C236.145 39.2341 240 35.5435 240 30.8308C240 24.5284 234.331 23.2225 229.57 22.1437C226.169 21.3488 223.221 20.5539 223.221 18.1692C223.221 15.9548 225.375 14.5921 228.833 14.5921C232.291 14.5921 235.352 16.0116 236.939 17.9421L239.206 14.365C236.882 12.1506 233.481 10.4473 228.776 10.4473C222.087 10.4473 218.346 14.1947 218.346 18.5666C218.346 24.4716 223.788 25.7207 228.436 26.7995C231.951 27.5944 235.068 28.5029 235.068 31.2283C235.068 33.5562 233.028 35.146 229.173 35.146C225.489 35.146 221.861 33.2723 219.99 31.2283L217.553 34.9757Z" fill="black"/>
</g>
</svg>
