<svg xmlns="http://www.w3.org/2000/svg" viewBox="0 0 1324.19 1325.19"><defs><style>.cls-1{fill:#184f5b;}.cls-2{fill:#185e4d;}.cls-3{fill:#15274c;}.cls-4{fill:#977c7f;}.cls-5{fill:#175d60;}.cls-6{fill:#c2cad0;}.cls-7{fill:#9a1750;}.cls-8{fill:#e7717d;}.cls-9{fill:#455078;}.cls-10{fill:#f4f4f4;}.cls-11{fill:#fabab1;}.cls-12{fill:#151d4f;}</style></defs><title>Asset 1100</title><g id="Layer_2" data-name="Layer 2"><g id="Layer_1-2" data-name="Layer 1"><path class="cls-1" d="M511.87,14.72,577.36,4.55a56.72,56.72,0,0,1,65.39,57.72l-5.18,176.28a56.72,56.72,0,0,1-51.46,54.81h0a56.72,56.72,0,0,1-58.54-37.12L467.25,90.12A56.72,56.72,0,0,1,511.87,14.72Z"/><path class="cls-2" d="M275.65,115,330,77.14a56.72,56.72,0,0,1,84.09,23.15l72.73,160.66a56.72,56.72,0,0,1-22.18,71.84h0a56.72,56.72,0,0,1-68.9-7.65L268.67,202.35A56.72,56.72,0,0,1,275.65,115Z"/><path class="cls-3" d="M115.83,270.36,158,219.25a56.72,56.72,0,0,1,87.22-.31L358.48,354.14a56.72,56.72,0,0,1-2.05,75.16h0A56.72,56.72,0,0,1,288,440.45L132.58,356.36A56.72,56.72,0,0,1,115.83,270.36Z"/><path class="cls-4" d="M8.71,508.48l15.7-64.39a56.72,56.72,0,0,1,78.36-38.3L263.62,478.1a56.72,56.72,0,0,1,30.92,68.53h0a56.72,56.72,0,0,1-56.71,39.86L61.28,578.57A56.72,56.72,0,0,1,8.71,508.48Z"/><path class="cls-5" d="M5.68,742.39.2,676.34a56.72,56.72,0,0,1,62.22-61.13l175.46,17.7a56.72,56.72,0,0,1,51,55.23h0a56.72,56.72,0,0,1-41.19,55.76l-170,48.35A56.72,56.72,0,0,1,5.68,742.39Z"/><path class="cls-6" d="M744.59.86l65.29,11.42a56.72,56.72,0,0,1,43.38,75.66L791.71,253.21a56.72,56.72,0,0,1-66.35,35.37h0a56.72,56.72,0,0,1-43.51-54L678.11,57.94A56.72,56.72,0,0,1,744.59.86Z"/><path class="cls-7" d="M979.52,78.18l56.77,34.2a56.72,56.72,0,0,1,13.16,86.22l-117,131.93a56.72,56.72,0,0,1-74.64,9.05h0a56.72,56.72,0,0,1-21.11-66l60.25-166.14A56.72,56.72,0,0,1,979.52,78.18Z"/><path class="cls-8" d="M1177,236.31l38.59,53.89a56.72,56.72,0,0,1-22.05,84.38l-159.7,74.81a56.72,56.72,0,0,1-72.12-21.24h0a56.72,56.72,0,0,1,6.76-69l121.11-128.7A56.72,56.72,0,0,1,1177,236.31Z"/><path class="cls-9" d="M1290.07,447l16.7,64.14A56.72,56.72,0,0,1,1255.93,582L1080,594.57a56.72,56.72,0,0,1-59.71-45.69h0a56.72,56.72,0,0,1,31-62l159.2-76.72A56.72,56.72,0,0,1,1290.07,447Z"/><path class="cls-4" d="M1323.92,682.42l-6.4,66a56.72,56.72,0,0,1-72.13,49l-169.49-48.74a56.72,56.72,0,0,1-40.34-63.45h0a56.72,56.72,0,0,1,50.48-47.51l175.88-17.23A56.72,56.72,0,0,1,1323.92,682.42Z"/><path class="cls-6" d="M1269.92,917.62l-31.12,58.52a56.72,56.72,0,0,1-85.39,17.75l-138-109.81a56.72,56.72,0,0,1-13-74h0a56.72,56.72,0,0,1,64.8-24.61l169.12,51.29A56.72,56.72,0,0,1,1269.92,917.62Z"/><path class="cls-10" d="M1143.54,1116.65l-48.59,45.08a56.72,56.72,0,0,1-86.49-11.23l-94.36-149a56.72,56.72,0,0,1,12-74.23h0a56.72,56.72,0,0,1,69.29-2l143,103.91A56.72,56.72,0,0,1,1143.54,1116.65Z"/><path class="cls-11" d="M929.42,1263.51l-61.86,23.79a56.72,56.72,0,0,1-76.12-42.58l-32.22-173.39a56.72,56.72,0,0,1,38.71-64.46h0a56.72,56.72,0,0,1,65.07,23.9l94.08,149.6A56.72,56.72,0,0,1,929.42,1263.51Z"/><path class="cls-8" d="M700.69,1323.1l-66.25,2.06a56.72,56.72,0,0,1-57.83-65.29l26.74-174.32a56.72,56.72,0,0,1,57.79-48.09h0a56.72,56.72,0,0,1,53.55,44l39.5,172.25A56.72,56.72,0,0,1,700.69,1323.1Z"/><path class="cls-7" d="M460.12,1286.82l-62.44-22.21a56.72,56.72,0,0,1-30.07-81.87L456,1030.14a56.72,56.72,0,0,1,71.34-23.73h0a56.72,56.72,0,0,1,33.84,60.5l-26,174.81A56.72,56.72,0,0,1,460.12,1286.82Z"/><path class="cls-9" d="M243.31,1177.14l-50.08-43.42a56.72,56.72,0,0,1,1.79-87.2l137.88-110A56.72,56.72,0,0,1,408,940.44h0a56.72,56.72,0,0,1,9.5,68.67l-87.81,153.37A56.72,56.72,0,0,1,243.31,1177.14Z"/><path class="cls-12" d="M89.53,983.43l-31-58.59a56.72,56.72,0,0,1,33.2-80.65l168.31-52.65a56.72,56.72,0,0,1,68.61,30.75h0a56.72,56.72,0,0,1-16,67.45L175.37,1001A56.72,56.72,0,0,1,89.53,983.43Z"/></g></g></svg>